<svg width="171" height="29" viewBox="0 0 171 29" fill="none" xmlns="http://www.w3.org/2000/svg">
<g clip-path="url(#clip0_470_18342)">
<path d="M0.5 4.60955V10.6325C0.5 12.4668 2.73518 13.4452 4.10113 12.1611L10.6204 6.1382C12.0484 4.82356 11.1171 2.5 9.16134 2.5H2.64205C1.46237 2.5 0.5 3.44777 0.5 4.60955Z" fill="#043873"/>
<path d="M31.3578 2.5H24.8385C22.9138 2.5 21.9514 4.82356 23.3795 6.1382L29.8987 12.1611C31.2647 13.4146 33.4999 12.4668 33.4999 10.6325V4.60955C33.4999 3.44777 32.5375 2.5 31.3578 2.5Z" fill="#043873"/>
<path d="M18.4746 17.2056L29.8989 27.7839C31.2648 29.0374 33.5 28.0897 33.5 26.2553V20.1712C33.5 19.5903 33.2516 19.04 32.817 18.6426L18.4746 5.34327C17.6364 4.57894 16.3636 4.57894 15.5254 5.34327L1.18297 18.6426C0.748354 19.04 0.5 19.5903 0.5 20.1712V26.2553C0.5 28.0897 2.73518 29.068 4.10113 27.7839L15.5254 17.2056C16.3636 16.4413 17.6364 16.4413 18.4746 17.2056Z" fill="#043873"/>
</g>
<path d="M51.5312 23L47.9688 9.90909H51.642L53.6705 18.7045H53.7898L55.9034 9.90909H59.5085L61.6562 18.6534H61.767L63.7614 9.90909H67.4261L63.8722 23H60.0284L57.7784 14.767H57.6165L55.3665 23H51.5312ZM72.9936 15.4318V23H69.3629V5.54545H72.8913V12.2188H73.0447C73.3402 11.446 73.8175 10.8409 74.4766 10.4034C75.1357 9.96023 75.9624 9.73864 76.9567 9.73864C77.8658 9.73864 78.6584 9.9375 79.3345 10.3352C80.0163 10.7273 80.5447 11.2926 80.9197 12.0312C81.3004 12.7642 81.4879 13.642 81.4822 14.6648V23H77.8516V15.3125C77.8572 14.5057 77.6527 13.8778 77.2379 13.429C76.8288 12.9801 76.255 12.7557 75.5163 12.7557C75.022 12.7557 74.5845 12.8608 74.2038 13.071C73.8288 13.2812 73.5334 13.5881 73.3175 13.9915C73.1072 14.3892 72.9993 14.8693 72.9936 15.4318ZM84.3395 23V9.90909H87.9702V23H84.3395ZM86.1634 8.22159C85.6236 8.22159 85.1605 8.04261 84.7741 7.68466C84.3935 7.32102 84.2031 6.88636 84.2031 6.38068C84.2031 5.88068 84.3935 5.4517 84.7741 5.09375C85.1605 4.73011 85.6236 4.54829 86.1634 4.54829C86.7031 4.54829 87.1634 4.73011 87.544 5.09375C87.9304 5.4517 88.1236 5.88068 88.1236 6.38068C88.1236 6.88636 87.9304 7.32102 87.544 7.68466C87.1634 8.04261 86.7031 8.22159 86.1634 8.22159ZM97.8416 9.90909V12.6364H89.9581V9.90909H97.8416ZM91.7479 6.77273H95.3786V18.9773C95.3786 19.3125 95.4297 19.5739 95.532 19.7614C95.6342 19.9432 95.7763 20.071 95.9581 20.1449C96.1456 20.2187 96.3615 20.2557 96.6058 20.2557C96.7763 20.2557 96.9467 20.2415 97.1172 20.2131C97.2876 20.179 97.4183 20.1534 97.5092 20.1364L98.0803 22.8381C97.8984 22.8949 97.6428 22.9602 97.3132 23.0341C96.9837 23.1136 96.5831 23.1619 96.1115 23.179C95.2365 23.2131 94.4695 23.0966 93.8104 22.8295C93.157 22.5625 92.6484 22.1477 92.2848 21.5852C91.9212 21.0227 91.7422 20.3125 91.7479 19.4545V6.77273ZM106.032 23.2557C104.685 23.2557 103.526 22.983 102.555 22.4375C101.589 21.8864 100.844 21.108 100.322 20.1023C99.799 19.0909 99.5376 17.8949 99.5376 16.5142C99.5376 15.1676 99.799 13.9858 100.322 12.9688C100.844 11.9517 101.58 11.1591 102.529 10.5909C103.484 10.0227 104.603 9.73864 105.887 9.73864C106.751 9.73864 107.555 9.87784 108.299 10.1562C109.049 10.429 109.702 10.8409 110.259 11.392C110.822 11.9432 111.259 12.6364 111.572 13.4716C111.884 14.3011 112.04 15.2727 112.04 16.3864V17.3835H100.987V15.1335H108.623C108.623 14.6108 108.509 14.1477 108.282 13.7443C108.055 13.3409 107.739 13.0256 107.336 12.7983C106.938 12.5653 106.475 12.4489 105.947 12.4489C105.396 12.4489 104.907 12.5767 104.481 12.8324C104.06 13.0824 103.731 13.4205 103.492 13.8466C103.254 14.267 103.131 14.7358 103.126 15.2528V17.392C103.126 18.0398 103.245 18.5994 103.484 19.071C103.728 19.5426 104.072 19.9062 104.515 20.1619C104.958 20.4176 105.484 20.5455 106.092 20.5455C106.495 20.5455 106.864 20.4886 107.2 20.375C107.535 20.2614 107.822 20.0909 108.06 19.8636C108.299 19.6364 108.481 19.358 108.606 19.0284L111.964 19.25C111.793 20.0568 111.444 20.7614 110.915 21.3636C110.393 21.9602 109.717 22.4261 108.887 22.7614C108.063 23.0909 107.112 23.2557 106.032 23.2557ZM114.41 27.9091V9.90909H117.989V12.108H118.151C118.31 11.7557 118.54 11.3977 118.842 11.0341C119.148 10.6648 119.546 10.358 120.035 10.1136C120.529 9.86364 121.143 9.73864 121.876 9.73864C122.83 9.73864 123.711 9.98864 124.518 10.4886C125.325 10.983 125.969 11.7301 126.452 12.7301C126.935 13.7244 127.177 14.9716 127.177 16.4716C127.177 17.9318 126.941 19.1648 126.469 20.1705C126.004 21.1705 125.367 21.929 124.56 22.446C123.759 22.9574 122.862 23.2131 121.867 23.2131C121.163 23.2131 120.563 23.0966 120.069 22.8636C119.58 22.6307 119.18 22.3381 118.867 21.9858C118.555 21.6278 118.316 21.267 118.151 20.9034H118.04V27.9091H114.41ZM117.964 16.4545C117.964 17.233 118.072 17.9119 118.288 18.4915C118.504 19.071 118.816 19.5227 119.225 19.8466C119.634 20.1648 120.131 20.3239 120.717 20.3239C121.308 20.3239 121.808 20.1619 122.217 19.8381C122.626 19.5085 122.935 19.054 123.146 18.4744C123.362 17.8892 123.469 17.2159 123.469 16.4545C123.469 15.6989 123.364 15.0341 123.154 14.4602C122.944 13.8864 122.634 13.4375 122.225 13.1136C121.816 12.7898 121.313 12.6278 120.717 12.6278C120.126 12.6278 119.626 12.7841 119.217 13.0966C118.813 13.4091 118.504 13.8523 118.288 14.4261C118.072 15 117.964 15.6761 117.964 16.4545ZM133.33 23.2472C132.495 23.2472 131.751 23.1023 131.097 22.8125C130.444 22.517 129.927 22.0824 129.546 21.5085C129.171 20.929 128.984 20.2074 128.984 19.3438C128.984 18.6165 129.117 18.0057 129.384 17.5114C129.651 17.017 130.015 16.6193 130.475 16.3182C130.935 16.017 131.458 15.7898 132.043 15.6364C132.634 15.483 133.254 15.375 133.901 15.3125C134.663 15.233 135.276 15.1591 135.742 15.0909C136.208 15.017 136.546 14.9091 136.756 14.767C136.967 14.625 137.072 14.4148 137.072 14.1364V14.0852C137.072 13.5455 136.901 13.1278 136.56 12.8324C136.225 12.5369 135.748 12.3892 135.129 12.3892C134.475 12.3892 133.955 12.5341 133.569 12.8239C133.183 13.108 132.927 13.4659 132.802 13.8977L129.444 13.625C129.614 12.8295 129.95 12.142 130.45 11.5625C130.95 10.9773 131.594 10.5284 132.384 10.2159C133.18 9.89773 134.1 9.73864 135.146 9.73864C135.873 9.73864 136.569 9.82386 137.234 9.99432C137.904 10.1648 138.498 10.429 139.015 10.7869C139.538 11.1449 139.95 11.6051 140.251 12.1676C140.552 12.7244 140.702 13.392 140.702 14.1705V23H137.259V21.1847H137.157C136.947 21.5938 136.665 21.9545 136.313 22.267C135.961 22.5739 135.538 22.8153 135.043 22.9915C134.549 23.1619 133.978 23.2472 133.33 23.2472ZM134.37 20.7415C134.904 20.7415 135.376 20.6364 135.785 20.4261C136.194 20.2102 136.515 19.9205 136.748 19.5568C136.981 19.1932 137.097 18.7812 137.097 18.321V16.9318C136.984 17.0057 136.827 17.0739 136.629 17.1364C136.435 17.1932 136.217 17.2472 135.972 17.2983C135.728 17.3437 135.484 17.3864 135.239 17.4261C134.995 17.4602 134.773 17.4915 134.575 17.5199C134.148 17.5824 133.776 17.6818 133.458 17.8182C133.14 17.9545 132.893 18.1392 132.717 18.3722C132.54 18.5994 132.452 18.8835 132.452 19.2244C132.452 19.7188 132.631 20.0966 132.989 20.358C133.353 20.6136 133.813 20.7415 134.37 20.7415ZM149.434 23.2557C148.093 23.2557 146.94 22.9716 145.974 22.4034C145.013 21.8295 144.275 21.0341 143.758 20.017C143.246 19 142.991 17.8295 142.991 16.5057C142.991 15.1648 143.249 13.9886 143.766 12.9773C144.289 11.9602 145.031 11.1676 145.991 10.5994C146.951 10.0256 148.093 9.73864 149.417 9.73864C150.559 9.73864 151.559 9.94602 152.417 10.3608C153.275 10.7756 153.954 11.358 154.454 12.108C154.954 12.858 155.229 13.7386 155.281 14.75H151.854C151.758 14.0966 151.502 13.571 151.087 13.1733C150.678 12.7699 150.141 12.5682 149.477 12.5682C148.914 12.5682 148.423 12.7216 148.002 13.0284C147.587 13.3295 147.263 13.7699 147.031 14.3494C146.798 14.929 146.681 15.6307 146.681 16.4545C146.681 17.2898 146.795 18 147.022 18.5852C147.255 19.1705 147.582 19.6165 148.002 19.9233C148.423 20.2301 148.914 20.3835 149.477 20.3835C149.891 20.3835 150.263 20.2983 150.593 20.1278C150.928 19.9574 151.204 19.7102 151.42 19.3864C151.641 19.0568 151.786 18.6619 151.854 18.2017H155.281C155.224 19.2017 154.951 20.0824 154.462 20.8438C153.979 21.5994 153.312 22.1903 152.46 22.6165C151.607 23.0426 150.599 23.2557 149.434 23.2557ZM163.571 23.2557C162.224 23.2557 161.065 22.983 160.094 22.4375C159.128 21.8864 158.384 21.108 157.861 20.1023C157.338 19.0909 157.077 17.8949 157.077 16.5142C157.077 15.1676 157.338 13.9858 157.861 12.9688C158.384 11.9517 159.119 11.1591 160.068 10.5909C161.023 10.0227 162.142 9.73864 163.426 9.73864C164.29 9.73864 165.094 9.87784 165.838 10.1562C166.588 10.429 167.241 10.8409 167.798 11.392C168.361 11.9432 168.798 12.6364 169.111 13.4716C169.423 14.3011 169.58 15.2727 169.58 16.3864V17.3835H158.526V15.1335H166.162C166.162 14.6108 166.048 14.1477 165.821 13.7443C165.594 13.3409 165.278 13.0256 164.875 12.7983C164.477 12.5653 164.014 12.4489 163.486 12.4489C162.935 12.4489 162.446 12.5767 162.02 12.8324C161.599 13.0824 161.27 13.4205 161.031 13.8466C160.793 14.267 160.67 14.7358 160.665 15.2528V17.392C160.665 18.0398 160.784 18.5994 161.023 19.071C161.267 19.5426 161.611 19.9062 162.054 20.1619C162.497 20.4176 163.023 20.5455 163.631 20.5455C164.034 20.5455 164.403 20.4886 164.739 20.375C165.074 20.2614 165.361 20.0909 165.599 19.8636C165.838 19.6364 166.02 19.358 166.145 19.0284L169.503 19.25C169.332 20.0568 168.983 20.7614 168.455 21.3636C167.932 21.9602 167.256 22.4261 166.426 22.7614C165.602 23.0909 164.651 23.2557 163.571 23.2557Z" fill="#043873"/>
<defs>
<clipPath id="clip0_470_18342">
<rect width="33" height="25.8649" fill="white" transform="translate(0.5 2.5)"/>
</clipPath>
</defs>
</svg>
