<svg width="177" height="30" viewBox="0 0 177 30" fill="none" xmlns="http://www.w3.org/2000/svg">
<g clip-path="url(#clip0_470_18342)">
<path d="M0.5 4.67347V10.8789C0.5 12.7689 2.80292 13.7769 4.21025 12.4539L10.9271 6.24845C12.3984 4.89397 11.4389 2.5 9.4238 2.5H2.70696C1.49153 2.5 0.5 3.47649 0.5 4.67347Z" fill="#043873"/>
<path d="M32.2932 2.5H25.5763C23.5933 2.5 22.6017 4.89397 24.073 6.24845L30.7899 12.4539C32.1972 13.7454 34.5001 12.7689 34.5001 10.8789V4.67347C34.5001 3.47649 33.5086 2.5 32.2932 2.5Z" fill="#043873"/>
<path d="M19.0193 17.6513L30.7897 28.5502C32.1971 29.8417 34.5 28.8652 34.5 26.9752V20.7068C34.5 20.1083 34.2441 19.5413 33.7963 19.1318L19.0193 5.42948C18.1557 4.64199 16.8443 4.64199 15.9807 5.42948L1.20367 19.1318C0.75588 19.5413 0.5 20.1083 0.5 20.7068V26.9752C0.5 28.8652 2.80292 29.8732 4.21025 28.5502L15.9807 17.6513C16.8443 16.8638 18.1557 16.8638 19.0193 17.6513Z" fill="#043873"/>
</g>
<path d="M51.6992 24L47.9883 10.3636H51.8146L53.9276 19.5256H54.0518L56.2536 10.3636H60.0089L62.2461 19.4723H62.3615L64.4389 10.3636H68.2564L64.5543 24H60.5504L58.2067 15.424H58.038L55.6942 24H51.6992ZM74.0558 16.1165V24H70.2739V5.81818H73.9493V12.7695H74.1091C74.4169 11.9646 74.914 11.3343 75.6006 10.8786C76.2871 10.4169 77.1483 10.1861 78.184 10.1861C79.131 10.1861 79.9566 10.3932 80.661 10.8075C81.3712 11.2159 81.9216 11.8048 82.3122 12.5742C82.7088 13.3377 82.9041 14.2521 82.8982 15.3175V24H79.1162V15.9922C79.1221 15.1518 78.9091 14.4978 78.477 14.0302C78.0509 13.5626 77.4531 13.3288 76.6837 13.3288C76.1688 13.3288 75.713 13.4383 75.3165 13.6573C74.9259 13.8763 74.6181 14.1959 74.3932 14.6161C74.1742 15.0304 74.0618 15.5305 74.0558 16.1165ZM85.8745 24V10.3636H89.6564V24H85.8745ZM87.7743 8.60582C87.2121 8.60582 86.7297 8.41939 86.3272 8.04652C85.9307 7.66773 85.7324 7.21496 85.7324 6.68821C85.7324 6.16738 85.9307 5.72053 86.3272 5.34766C86.7297 4.96887 87.2121 4.77947 87.7743 4.77947C88.3366 4.77947 88.816 4.96887 89.2125 5.34766C89.615 5.72053 89.8162 6.16738 89.8162 6.68821C89.8162 7.21496 89.615 7.66773 89.2125 8.04652C88.816 8.41939 88.3366 8.60582 87.7743 8.60582ZM99.9392 10.3636V13.2045H91.7272V10.3636H99.9392ZM93.5915 7.09659H97.3735V19.8097C97.3735 20.1589 97.4268 20.4311 97.5333 20.6264C97.6398 20.8158 97.7878 20.949 97.9772 21.0259C98.1725 21.1029 98.3974 21.1413 98.6519 21.1413C98.8295 21.1413 99.007 21.1265 99.1846 21.0969C99.3621 21.0614 99.4983 21.0348 99.593 21.017L100.188 23.8313C99.9984 23.8905 99.732 23.9586 99.3888 24.0355C99.0455 24.1184 98.6282 24.1687 98.137 24.1864C97.2255 24.2219 96.4265 24.1006 95.74 23.8224C95.0593 23.5443 94.5296 23.1122 94.1508 22.5263C93.772 21.9403 93.5856 21.2005 93.5915 20.3068V7.09659ZM108.471 24.2663C107.068 24.2663 105.861 23.9822 104.849 23.4141C103.842 22.84 103.067 22.0291 102.523 20.9815C101.978 19.928 101.706 18.6822 101.706 17.244C101.706 15.8413 101.978 14.6102 102.523 13.5508C103.067 12.4914 103.834 11.6657 104.822 11.0739C105.816 10.482 106.982 10.1861 108.32 10.1861C109.219 10.1861 110.057 10.3311 110.832 10.6211C111.614 10.9052 112.294 11.3343 112.874 11.9084C113.46 12.4825 113.916 13.2045 114.241 14.0746C114.567 14.9387 114.73 15.9508 114.73 17.1108V18.1495H103.215V15.8058H111.17C111.17 15.2612 111.051 14.7789 110.815 14.3587C110.578 13.9384 110.249 13.61 109.829 13.3732C109.415 13.1306 108.932 13.0092 108.382 13.0092C107.808 13.0092 107.299 13.1424 106.855 13.4087C106.417 13.6692 106.074 14.0213 105.825 14.4652C105.577 14.9032 105.449 15.3915 105.443 15.93V18.1584C105.443 18.8331 105.568 19.4161 105.816 19.9073C106.071 20.3986 106.429 20.7773 106.891 21.0437C107.352 21.31 107.9 21.4432 108.533 21.4432C108.953 21.4432 109.338 21.384 109.687 21.2656C110.036 21.1473 110.335 20.9697 110.584 20.733C110.832 20.4962 111.022 20.2062 111.152 19.8629L114.65 20.0938C114.472 20.9342 114.108 21.6681 113.558 22.2955C113.013 22.9169 112.309 23.4022 111.445 23.7514C110.587 24.0947 109.595 24.2663 108.471 24.2663ZM117.198 29.1136V10.3636H120.926V12.6541H121.095C121.261 12.2872 121.501 11.9143 121.814 11.5355C122.134 11.1508 122.548 10.8312 123.057 10.5767C123.572 10.3163 124.211 10.1861 124.975 10.1861C125.969 10.1861 126.886 10.4465 127.727 10.9673C128.567 11.4822 129.239 12.2605 129.742 13.3022C130.245 14.3379 130.497 15.6371 130.497 17.1996C130.497 18.7206 130.251 20.005 129.76 21.0526C129.275 22.0942 128.612 22.8844 127.771 23.4229C126.937 23.9556 126.002 24.2219 124.966 24.2219C124.232 24.2219 123.608 24.1006 123.093 23.858C122.584 23.6153 122.166 23.3105 121.841 22.9435C121.515 22.5707 121.267 22.1948 121.095 21.8161H120.98V29.1136H117.198ZM120.9 17.1818C120.9 17.9927 121.012 18.6999 121.237 19.3036C121.462 19.9073 121.788 20.3778 122.214 20.7152C122.64 21.0466 123.158 21.2124 123.767 21.2124C124.383 21.2124 124.904 21.0437 125.33 20.7063C125.756 20.363 126.079 19.8896 126.297 19.2859C126.522 18.6763 126.635 17.9749 126.635 17.1818C126.635 16.3946 126.525 15.7022 126.306 15.1044C126.087 14.5066 125.765 14.0391 125.339 13.7017C124.913 13.3643 124.389 13.1957 123.767 13.1957C123.152 13.1957 122.631 13.3584 122.205 13.6839C121.785 14.0095 121.462 14.4711 121.237 15.0689C121.012 15.6667 120.9 16.371 120.9 17.1818ZM136.907 24.2575C136.036 24.2575 135.261 24.1065 134.581 23.8047C133.9 23.4969 133.361 23.0442 132.965 22.4464C132.574 21.8427 132.379 21.091 132.379 20.1914C132.379 19.4338 132.518 18.7976 132.796 18.2827C133.074 17.7678 133.453 17.3535 133.932 17.0398C134.412 16.7261 134.956 16.4893 135.566 16.3295C136.181 16.1697 136.827 16.0573 137.501 15.9922C138.294 15.9093 138.934 15.8324 139.419 15.7614C139.904 15.6844 140.256 15.572 140.475 15.424C140.694 15.276 140.804 15.0571 140.804 14.767V14.7138C140.804 14.1515 140.626 13.7165 140.271 13.4087C139.922 13.101 139.425 12.9471 138.78 12.9471C138.099 12.9471 137.558 13.098 137.155 13.3999C136.753 13.6958 136.486 14.0687 136.356 14.5185L132.858 14.2344C133.036 13.4058 133.385 12.6896 133.906 12.0859C134.427 11.4763 135.098 11.0088 135.921 10.6832C136.75 10.3518 137.708 10.1861 138.797 10.1861C139.555 10.1861 140.28 10.2749 140.973 10.4524C141.671 10.63 142.289 10.9052 142.828 11.2781C143.373 11.6509 143.802 12.1303 144.115 12.7163C144.429 13.2963 144.586 13.9917 144.586 14.8026V24H140.999V22.109H140.893C140.674 22.5352 140.381 22.911 140.014 23.2365C139.647 23.5561 139.206 23.8076 138.691 23.9911C138.176 24.1687 137.581 24.2575 136.907 24.2575ZM137.99 21.6474C138.546 21.6474 139.037 21.5379 139.463 21.3189C139.889 21.094 140.224 20.7921 140.467 20.4134C140.709 20.0346 140.831 19.6055 140.831 19.1261V17.679C140.712 17.7559 140.549 17.8269 140.342 17.892C140.141 17.9512 139.913 18.0075 139.659 18.0607C139.404 18.1081 139.15 18.1525 138.895 18.1939C138.641 18.2294 138.41 18.262 138.203 18.2915C137.759 18.3567 137.371 18.4602 137.04 18.6023C136.708 18.7443 136.451 18.9367 136.267 19.1793C136.084 19.4161 135.992 19.712 135.992 20.0671C135.992 20.582 136.179 20.9756 136.551 21.2479C136.93 21.5142 137.41 21.6474 137.99 21.6474ZM153.681 24.2663C152.284 24.2663 151.083 23.9704 150.077 23.3786C149.077 22.7808 148.307 21.9522 147.769 20.8928C147.236 19.8333 146.97 18.6141 146.97 17.2351C146.97 15.8383 147.239 14.6132 147.777 13.5597C148.322 12.5002 149.094 11.6746 150.095 11.0827C151.095 10.485 152.284 10.1861 153.663 10.1861C154.853 10.1861 155.895 10.4021 156.788 10.8342C157.682 11.2662 158.389 11.8729 158.91 12.6541C159.431 13.4354 159.718 14.3527 159.771 15.4062H156.203C156.102 14.7256 155.836 14.1781 155.403 13.7638C154.977 13.3436 154.418 13.1335 153.726 13.1335C153.14 13.1335 152.628 13.2933 152.19 13.6129C151.758 13.9266 151.42 14.3853 151.178 14.989C150.935 15.5927 150.814 16.3236 150.814 17.1818C150.814 18.0518 150.932 18.7917 151.169 19.4013C151.411 20.0109 151.752 20.4755 152.19 20.7951C152.628 21.1147 153.14 21.2745 153.726 21.2745C154.158 21.2745 154.545 21.1857 154.889 21.0082C155.238 20.8306 155.525 20.5732 155.75 20.2358C155.981 19.8925 156.131 19.4812 156.203 19.0018H159.771C159.712 20.0434 159.428 20.9608 158.919 21.7539C158.416 22.5411 157.721 23.1566 156.833 23.6005C155.945 24.0444 154.895 24.2663 153.681 24.2663ZM168.407 24.2663C167.005 24.2663 165.797 23.9822 164.785 23.4141C163.779 22.84 163.004 22.0291 162.459 20.9815C161.915 19.928 161.642 18.6822 161.642 17.244C161.642 15.8413 161.915 14.6102 162.459 13.5508C163.004 12.4914 163.77 11.6657 164.759 11.0739C165.753 10.482 166.919 10.1861 168.256 10.1861C169.156 10.1861 169.993 10.3311 170.769 10.6211C171.55 10.9052 172.231 11.3343 172.811 11.9084C173.397 12.4825 173.852 13.2045 174.178 14.0746C174.503 14.9387 174.666 15.9508 174.666 17.1108V18.1495H163.152V15.8058H171.106C171.106 15.2612 170.988 14.7789 170.751 14.3587C170.514 13.9384 170.186 13.61 169.766 13.3732C169.351 13.1306 168.869 13.0092 168.319 13.0092C167.744 13.0092 167.235 13.1424 166.792 13.4087C166.354 13.6692 166.01 14.0213 165.762 14.4652C165.513 14.9032 165.386 15.3915 165.38 15.93V18.1584C165.38 18.8331 165.504 19.4161 165.753 19.9073C166.007 20.3986 166.365 20.7773 166.827 21.0437C167.289 21.31 167.836 21.4432 168.469 21.4432C168.89 21.4432 169.274 21.384 169.624 21.2656C169.973 21.1473 170.272 20.9697 170.52 20.733C170.769 20.4962 170.958 20.2062 171.088 19.8629L174.586 20.0938C174.409 20.9342 174.045 21.6681 173.494 22.2955C172.95 22.9169 172.246 23.4022 171.381 23.7514C170.523 24.0947 169.532 24.2663 168.407 24.2663Z" fill="#043873"/>
<defs>
<clipPath id="clip0_470_18342">
<rect width="34" height="26.6486" fill="white" transform="translate(0.5 2.5)"/>
</clipPath>
</defs>
</svg>
